<?xml version="1.0" standalone="no"?><!DOCTYPE svg PUBLIC "-//W3C//DTD SVG 1.1//EN" "http://www.w3.org/Graphics/SVG/1.1/DTD/svg11.dtd"><svg t="1589597014396" class="icon" viewBox="0 0 1024 1024" version="1.1" xmlns="http://www.w3.org/2000/svg" p-id="3995" xmlns:xlink="http://www.w3.org/1999/xlink" width="200" height="200"><defs><style type="text/css"></style></defs><path d="M316.123429 587.849143l88.941714 89.014857 432.493714-432.274286a62.902857 62.902857 0 1 0-89.014857-89.014857l-432.420571 432.274286z m-72.411429 72.411428l-45.129143 45.056a1947.940571 1947.940571 0 0 0-39.716571 102.180572c-5.12 14.701714-9.508571 28.16-12.946286 40.009143 11.702857-3.364571 24.868571-7.68 39.204571-12.726857a1781.394286 1781.394286 0 0 0 102.4-40.374858l45.129143-45.202285-88.941714-88.941715z m93.842286 224.036572a1882.112 1882.112 0 0 1-118.491429 47.104c-92.306286 32.475429-132.608 40.740571-165.522286 7.753143-32.475429-32.475429-24.356571-70.802286 8.630858-165.376a2002.066286 2002.066286 0 0 1 46.226285-118.052572l3.949715-8.923428 6.875428-6.875429 556.909714-556.763428a165.302857 165.302857 0 1 1 233.837715 233.764571l-563.712 563.492571-8.704 3.876572z" p-id="3996"></path></svg>